<svg width="156" height="156" viewBox="0 0 156 156" fill="none" xmlns="http://www.w3.org/2000/svg">
<path d="M122.708 78.7476C140.543 78.7476 155 93.2051 155 111.039V121.302C155 140.465 139.465 156 120.302 156H43C19.2518 156 0 136.748 0 113V78V41C0 18.3563 18.3563 0 41 0H118.118C138.487 0 155 16.5125 155 36.8818C155 36.8818 155.983 54.4507 148.5 63.5C141.562 71.8897 122.708 78.7476 122.708 78.7476Z" fill="#0E0D0D"/>
<circle cx="36.5" cy="39.5" r="19.5" fill="#567CB2"/>
<circle cx="114.5" cy="39.5" r="19.5" fill="#567CB2"/>
<circle cx="114.5" cy="116.5" r="19.5" fill="#567CB2"/>
<circle cx="36.5" cy="116.5" r="19.5" fill="#567CB2"/>
<path d="M118 97.5L95.5 118C95.5 118 93 96.1621 75 97C59.5 97.7215 55 121.5 55 121.5L32 97.5C32 97.5 44.8828 97.3758 50 93C55.1107 88.6297 56.6257 84.2233 56.5 77.5C56.3709 70.5976 54.3417 66.0848 49 62C43.492 57.788 32.5 58.5 32.5 58.5L55.5 36C55.5 36 56.0081 48.2339 62 53.5C66.1406 57.1391 69.4894 58.8572 75 59C80.8721 59.1522 84.4721 57.2421 89 53.5C94.19 49.2108 95.5 37.5 95.5 37.5L116.5 58.5C116.5 58.5 105.588 57.9468 101 63.5C97.1605 68.1469 94.5 71.4721 94.5 77.5C94.5 95.5 118 97.5 118 97.5Z" fill="#567CB2"/>
</svg>
